<svg width="303" height="211" viewBox="0 0 303 211" fill="none" xmlns="http://www.w3.org/2000/svg">
<path d="M169 185H133C135.333 190.167 142.3 202.6 151.5 211C161.5 200.2 167.333 189.167 169 185Z" fill="#222831"/>
<path d="M279 139H24L31 149H272L279 139Z" fill="#222831"/>
<path d="M261 163H42L52 173H250L261 163Z" fill="#222831"/>
<path d="M129 185H70C92.4 202.6 118.667 208.333 129 209V185Z" fill="#222831"/>
<path d="M174 185H233C210.6 202.6 184.333 208.333 174 209V185Z" fill="#222831"/>
<path d="M286 126H198C211.5 99.5 260 60 302 60C306 83.2 293 113.667 286 126Z" fill="#222831"/>
<path d="M16.7487 126H104.749C91.2487 99.5 42.7487 60 0.74868 60C-3.25132 83.2 9.74868 113.667 16.7487 126Z" fill="#222831"/>
<path d="M190 126H113C109 108.5 110 42.5 151.5 0C190.3 41.6 193.333 101.333 190 126Z" fill="#222831"/>
</svg>
